{
    "asset" : {
        "generator" : "Khronos glTF Blender I/O v1.2.75",
        "version" : "2.0"
    },
    "scene" : 0,
    "scenes" : [
        {
            "name" : "Scene",
            "nodes" : [
                14,
                15
            ]
        }
    ],
    "nodes" : [
        {
            "name" : "Node_8"
        },
        {
            "children" : [
                0
            ],
            "name" : "Camera.001",
            "rotation" : [
                0.02258884161710739,
                0.9378951787948608,
                0.008335383608937263,
                0.3460821509361267
            ],
            "scale" : [
                99.99999237060547,
                99.99999237060547,
                100
            ],
            "translation" : [
                890.4058227539062,
                40.14922332763672,
                704.82568359375
            ]
        },
        {
            "mesh" : 0,
            "name" : "Cube_Material.001_0"
        },
        {
            "children" : [
                2
            ],
            "name" : "Cube",
            "rotation" : [
                -0.7071068286895752,
                0,
                0,
                0.7071067094802856
            ],
            "scale" : [
                100,
                100,
                100
            ],
            "translation" : [
                0,
                98.42427062988281,
                0
            ]
        },
        {
            "mesh" : 1,
            "name" : "Cube.001_Material.002_0"
        },
        {
            "children" : [
                4
            ],
            "name" : "Cube.001",
            "rotation" : [
                -0.7071068286895752,
                0,
                0,
                0.7071067094802856
            ],
            "scale" : [
                100,
                100,
                100
            ],
            "translation" : [
                0,
                98.42427062988281,
                0
            ]
        },
        {
            "mesh" : 2,
            "name" : "Cube.002_Material.003_0"
        },
        {
            "children" : [
                6
            ],
            "name" : "Cube.002",
            "rotation" : [
                -0.7071068286895752,
                0,
                0,
                0.7071067094802856
            ],
            "scale" : [
                100,
                100,
                100
            ],
            "translation" : [
                0,
                98.42427062988281,
                -9.838218688964844
            ]
        },
        {
            "name" : "Node_6"
        },
        {
            "children" : [
                8
            ],
            "name" : "Node_5",
            "rotation" : [
                0.7071068286895752,
                0,
                0,
                0.7071068286895752
            ]
        },
        {
            "children" : [
                9
            ],
            "name" : "Light.001",
            "rotation" : [
                0.16907569766044617,
                0.7558803558349609,
                -0.27217134833335876,
                0.570947527885437
            ],
            "scale" : [
                100.00000762939453,
                100,
                100
            ],
            "translation" : [
                538.8333129882812,
                538.0059814453125,
                -258.014404296875
            ]
        },
        {
            "children" : [
                1,
                3,
                5,
                7,
                10
            ],
            "name" : "RootNode"
        },
        {
            "children" : [
                11
            ],
            "name" : "4a0cc5c0247d462898adafde22951f4d.fbx",
            "rotation" : [
                0.7071068286895752,
                0,
                0,
                0.7071068286895752
            ]
        },
        {
            "children" : [
                12
            ],
            "name" : "RootNode (model correction matrix)"
        },
        {
            "children" : [
                13
            ],
            "name" : "RootNode (gltf orientation matrix)",
            "rotation" : [
                -0.7071067690849304,
                0,
                0,
                0.7071067690849304
            ]
        },
        {
            "name" : "Light",
            "rotation" : [
                0.16907575726509094,
                0.7558803558349609,
                -0.27217137813568115,
                0.570947527885437
            ],
            "translation" : [
                4.076245307922363,
                5.903861999511719,
                -1.0054539442062378
            ]
        }
    ],
    "materials" : [
        {
            "doubleSided" : true,
            "emissiveFactor" : [
                0,
                0,
                0
            ],
            "name" : "Material.001",
            "pbrMetallicRoughness" : {
                "baseColorTexture" : {
                    "index" : 0,
                    "texCoord" : 0
                },
                "metallicRoughnessTexture" : {
                    "index" : 1,
                    "texCoord" : 0
                }
            }
        },
        {
            "alphaMode" : "BLEND",
            "doubleSided" : true,
            "emissiveFactor" : [
                0,
                0,
                0
            ],
            "name" : "Material.002",
            "pbrMetallicRoughness" : {
                "baseColorFactor" : [
                    0.24681763350963593,
                    0.32180747389793396,
                    0.3090822994709015,
                    0.7943978905677795
                ],
                "metallicFactor" : 1,
                "roughnessFactor" : 0
            }
        },
        {
            "doubleSided" : true,
            "emissiveFactor" : [
                1,
                1,
                1
            ],
            "emissiveTexture" : {
                "index" : 2,
                "texCoord" : 0
            },
            "name" : "Material.003",
            "pbrMetallicRoughness" : {
                "baseColorFactor" : [
                    0.800000011920929,
                    0.800000011920929,
                    0.800000011920929,
                    1
                ],
                "metallicFactor" : 0,
                "roughnessFactor" : 0.32145580649375916
            }
        }
    ],
    "meshes" : [
        {
            "name" : "Cube_Material.001_0",
            "primitives" : [
                {
                    "attributes" : {
                        "POSITION" : 0,
                        "NORMAL" : 1,
                        "TEXCOORD_0" : 2
                    },
                    "indices" : 3,
                    "material" : 0
                }
            ]
        },
        {
            "name" : "Cube.001_Material.002_0",
            "primitives" : [
                {
                    "attributes" : {
                        "POSITION" : 4,
                        "NORMAL" : 5,
                        "TEXCOORD_0" : 6
                    },
                    "indices" : 7,
                    "material" : 1
                }
            ]
        },
        {
            "name" : "Cube.002_Material.003_0",
            "primitives" : [
                {
                    "attributes" : {
                        "POSITION" : 8,
                        "NORMAL" : 9,
                        "TEXCOORD_0" : 10
                    },
                    "indices" : 11,
                    "material" : 2
                }
            ]
        }
    ],
    "textures" : [
        {
            "source" : 0
        },
        {
            "source" : 1
        },
        {
            "source" : 0
        }
    ],
    "images" : [
        {
            "bufferView" : 4,
            "mimeType" : "image/jpeg",
            "name" : "Material.001_baseColor"
        },
        {
            "bufferView" : 5,
            "mimeType" : "image/png",
            "name" : "Material.001_metallicRoughness"
        }
    ],
    "accessors" : [
        {
            "bufferView" : 0,
            "componentType" : 5126,
            "count" : 4050,
            "max" : [
                2.7203547954559326,
                1.1228135824203491,
                1.0927784442901611
            ],
            "min" : [
                -2.653268814086914,
                -1.4199670553207397,
                -1.0018634796142578
            ],
            "type" : "VEC3"
        },
        {
            "bufferView" : 1,
            "componentType" : 5126,
            "count" : 4050,
            "type" : "VEC3"
        },
        {
            "bufferView" : 2,
            "componentType" : 5126,
            "count" : 4050,
            "type" : "VEC2"
        },
        {
            "bufferView" : 3,
            "componentType" : 5123,
            "count" : 7494,
            "type" : "SCALAR"
        },
        {
            "bufferView" : 6,
            "componentType" : 5126,
            "count" : 220,
            "max" : [
                1.5378131866455078,
                -0.9476751089096069,
                -0.0735635980963707
            ],
            "min" : [
                -1.9771815538406372,
                -1.0009453296661377,
                -1
            ],
            "type" : "VEC3"
        },
        {
            "bufferView" : 7,
            "componentType" : 5126,
            "count" : 220,
            "type" : "VEC3"
        },
        {
            "bufferView" : 8,
            "componentType" : 5126,
            "count" : 220,
            "type" : "VEC2"
        },
        {
            "bufferView" : 9,
            "componentType" : 5123,
            "count" : 366,
            "type" : "SCALAR"
        },
        {
            "bufferView" : 10,
            "componentType" : 5126,
            "count" : 708,
            "max" : [
                1.5378131866455078,
                -0.9476751089096069,
                -0.0735635980963707
            ],
            "min" : [
                -1.9771846532821655,
                -1.0937013626098633,
                -1.0000017881393433
            ],
            "type" : "VEC3"
        },
        {
            "bufferView" : 11,
            "componentType" : 5126,
            "count" : 708,
            "type" : "VEC3"
        },
        {
            "bufferView" : 12,
            "componentType" : 5126,
            "count" : 708,
            "type" : "VEC2"
        },
        {
            "bufferView" : 13,
            "componentType" : 5123,
            "count" : 894,
            "type" : "SCALAR"
        }
    ],
    "bufferViews" : [
        {
            "buffer" : 0,
            "byteLength" : 48600,
            "byteOffset" : 0
        },
        {
            "buffer" : 0,
            "byteLength" : 48600,
            "byteOffset" : 48600
        },
        {
            "buffer" : 0,
            "byteLength" : 32400,
            "byteOffset" : 97200
        },
        {
            "buffer" : 0,
            "byteLength" : 14988,
            "byteOffset" : 129600
        },
        {
            "buffer" : 0,
            "byteLength" : 301356,
            "byteOffset" : 144588
        },
        {
            "buffer" : 0,
            "byteLength" : 323170,
            "byteOffset" : 445944
        },
        {
            "buffer" : 0,
            "byteLength" : 2640,
            "byteOffset" : 769116
        },
        {
            "buffer" : 0,
            "byteLength" : 2640,
            "byteOffset" : 771756
        },
        {
            "buffer" : 0,
            "byteLength" : 1760,
            "byteOffset" : 774396
        },
        {
            "buffer" : 0,
            "byteLength" : 732,
            "byteOffset" : 776156
        },
        {
            "buffer" : 0,
            "byteLength" : 8496,
            "byteOffset" : 776888
        },
        {
            "buffer" : 0,
            "byteLength" : 8496,
            "byteOffset" : 785384
        },
        {
            "buffer" : 0,
            "byteLength" : 5664,
            "byteOffset" : 793880
        },
        {
            "buffer" : 0,
            "byteLength" : 1788,
            "byteOffset" : 799544
        }
    ],
    "buffers" : [
        {
            "byteLength" : 801332,
            "uri" : "data:application/octet-stream;base64,"
        }
    ]
}
