{
    "asset" : {
        "generator" : "Khronos glTF Blender I/O v1.2.75",
        "version" : "2.0"
    },
    "scene" : 0,
    "scenes" : [
        {
            "name" : "Scene",
            "nodes" : [
                3,
                4
            ]
        }
    ],
    "nodes" : [
        {
            "mesh" : 0,
            "name" : "node-0"
        },
        {
            "children" : [
                0
            ],
            "name" : "Node_3",
            "translation" : [
                -0.10891487449407578,
                -7.520955562591553,
                -0.06058022379875183
            ]
        },
        {
            "children" : [
                1
            ],
            "name" : "Node_2",
            "translation" : [
                0.10891487449407578,
                7.520955562591553,
                0.06058022379875183
            ]
        },
        {
            "children" : [
                2
            ],
            "name" : "Node_1"
        },
        {
            "name" : "headLightNode",
            "translation" : [
                -8.510473251342773,
                4.255236625671387,
                -4.255236625671387
            ]
        }
    ],
    "materials" : [
        {
            "doubleSided" : true,
            "emissiveFactor" : [
                0,
                0,
                0
            ],
            "name" : "MacarthurPalmTree_mat",
            "pbrMetallicRoughness" : {
                "baseColorFactor" : [
                    0.5,
                    0.5,
                    0.5,
                    1
                ],
                "baseColorTexture" : {
                    "index" : 0,
                    "texCoord" : 0
                },
                "metallicFactor" : 0,
                "roughnessFactor" : 0.9699476361274719
            }
        }
    ],
    "meshes" : [
        {
            "name" : "buffer-0-mesh-0",
            "primitives" : [
                {
                    "attributes" : {
                        "POSITION" : 0,
                        "NORMAL" : 1,
                        "TEXCOORD_0" : 2
                    },
                    "indices" : 3,
                    "material" : 0
                }
            ]
        }
    ],
    "textures" : [
        {
            "source" : 0
        }
    ],
    "images" : [
        {
            "bufferView" : 4,
            "mimeType" : "image/png",
            "name" : "MacarthurPalmTree_BaseColor"
        }
    ],
    "accessors" : [
        {
            "bufferView" : 0,
            "componentType" : 5126,
            "count" : 5040,
            "max" : [
                4.104191780090332,
                11.578312873840332,
                4.4604811668396
            ],
            "min" : [
                -3.8976449966430664,
                -0.02121100015938282,
                -4.1177239418029785
            ],
            "type" : "VEC3"
        },
        {
            "bufferView" : 1,
            "componentType" : 5126,
            "count" : 5040,
            "type" : "VEC3"
        },
        {
            "bufferView" : 2,
            "componentType" : 5126,
            "count" : 5040,
            "type" : "VEC2"
        },
        {
            "bufferView" : 3,
            "componentType" : 5123,
            "count" : 5040,
            "type" : "SCALAR"
        }
    ],
    "bufferViews" : [
        {
            "buffer" : 0,
            "byteLength" : 60480,
            "byteOffset" : 0
        },
        {
            "buffer" : 0,
            "byteLength" : 60480,
            "byteOffset" : 60480
        },
        {
            "buffer" : 0,
            "byteLength" : 40320,
            "byteOffset" : 120960
        },
        {
            "buffer" : 0,
            "byteLength" : 10080,
            "byteOffset" : 161280
        },
        {
            "buffer" : 0,
            "byteLength" : 2442704,
            "byteOffset" : 171360
        }
    ],
    "buffers" : [
        {
            "byteLength" : 2614064,
            "uri" : "data:application/octet-stream;base64,"
        }
    ]
}
