{
    "asset" : {
        "generator" : "Khronos glTF Blender I/O v1.2.75",
        "version" : "2.0"
    },
    "scene" : 0,
    "scenes" : [
        {
            "name" : "Scene",
            "nodes" : [
                0
            ]
        }
    ],
    "nodes" : [
        {
            "mesh" : 0,
            "name" : "node-0",
            "scale" : [
                0.4946286976337433,
                0.4708978831768036,
                0.477437824010849
            ]
        }
    ],
    "materials" : [
        {
            "doubleSided" : true,
            "emissiveFactor" : [
                0,
                0,
                0
            ],
            "name" : "SwimmingPool_mat",
            "pbrMetallicRoughness" : {
                "baseColorFactor" : [
                    0.5,
                    0.5,
                    0.5,
                    1
                ],
                "baseColorTexture" : {
                    "index" : 0,
                    "texCoord" : 0
                },
                "metallicFactor" : 0,
                "roughnessFactor" : 0.9699476361274719
            }
        }
    ],
    "meshes" : [
        {
            "name" : "buffer-0-mesh-0",
            "primitives" : [
                {
                    "attributes" : {
                        "POSITION" : 0,
                        "NORMAL" : 1,
                        "TEXCOORD_0" : 2
                    },
                    "indices" : 3,
                    "material" : 0
                }
            ]
        }
    ],
    "textures" : [
        {
            "source" : 0
        }
    ],
    "images" : [
        {
            "bufferView" : 4,
            "mimeType" : "image/png",
            "name" : "SwimmingPool_BaseColor"
        }
    ],
    "accessors" : [
        {
            "bufferView" : 0,
            "componentType" : 5126,
            "count" : 4281,
            "max" : [
                13.303546905517578,
                8.562531471252441,
                21.494449615478516
            ],
            "min" : [
                -13.496597290039062,
                0,
                -21.321025848388672
            ],
            "type" : "VEC3"
        },
        {
            "bufferView" : 1,
            "componentType" : 5126,
            "count" : 4281,
            "type" : "VEC3"
        },
        {
            "bufferView" : 2,
            "componentType" : 5126,
            "count" : 4281,
            "type" : "VEC2"
        },
        {
            "bufferView" : 3,
            "componentType" : 5123,
            "count" : 4281,
            "type" : "SCALAR"
        }
    ],
    "bufferViews" : [
        {
            "buffer" : 0,
            "byteLength" : 51372,
            "byteOffset" : 0
        },
        {
            "buffer" : 0,
            "byteLength" : 51372,
            "byteOffset" : 51372
        },
        {
            "buffer" : 0,
            "byteLength" : 34248,
            "byteOffset" : 102744
        },
        {
            "buffer" : 0,
            "byteLength" : 8562,
            "byteOffset" : 136992
        },
        {
            "buffer" : 0,
            "byteLength" : 1940572,
            "byteOffset" : 145556
        }
    ],
    "buffers" : [
        {
            "byteLength" : 2086128,
            "uri" : "data:application/octet-stream;base64,"
        }
    ]
}
